<mxfile host="app.diagrams.net" modified="2021-07-09T09:03:48.155Z" agent="5.0 (Windows NT 10.0; WOW64) AppleWebKit/537.36 (KHTML, like Gecko) Chrome/91.0.4472.114 Safari/537.36" etag="9GHipp4Ojyzopg1tzMSv" version="14.8.5" type="github">
  <diagram id="khBhBWoCP3W4C1DKPCGf" name="Page-1">
    <mxGraphModel dx="748" dy="508" grid="0" gridSize="10" guides="1" tooltips="1" connect="1" arrows="1" fold="1" page="1" pageScale="1" pageWidth="827" pageHeight="1169" background="none" math="0" shadow="0">
      <root>
        <mxCell id="0" />
        <mxCell id="1" parent="0" />
        <mxCell id="Rp98vRauL4UU2274sa19-13" style="edgeStyle=orthogonalEdgeStyle;rounded=0;orthogonalLoop=1;jettySize=auto;html=1;entryX=0.5;entryY=0;entryDx=0;entryDy=0;exitX=0.75;exitY=1;exitDx=0;exitDy=0;endArrow=open;endFill=0;" edge="1" parent="1" source="Rp98vRauL4UU2274sa19-1" target="Rp98vRauL4UU2274sa19-8">
          <mxGeometry relative="1" as="geometry" />
        </mxCell>
        <mxCell id="Rp98vRauL4UU2274sa19-1" value="&lt;font style=&quot;font-size: 14px&quot;&gt;Is it a &lt;b&gt;emotion&lt;/b&gt; clause ; &lt;b&gt;c&lt;sub&gt;i&lt;/sub&gt;&lt;/b&gt;&lt;/font&gt;" style="rounded=1;whiteSpace=wrap;html=1;fillColor=#dae8fc;strokeColor=#6c8ebf;" vertex="1" parent="1">
          <mxGeometry x="220" y="51" width="418" height="30" as="geometry" />
        </mxCell>
        <mxCell id="Rp98vRauL4UU2274sa19-6" style="edgeStyle=orthogonalEdgeStyle;rounded=0;orthogonalLoop=1;jettySize=auto;html=1;exitX=0.25;exitY=1;exitDx=0;exitDy=0;endArrow=open;endFill=0;" edge="1" parent="1" source="Rp98vRauL4UU2274sa19-1" target="Rp98vRauL4UU2274sa19-4">
          <mxGeometry relative="1" as="geometry">
            <Array as="points">
              <mxPoint x="324" y="113" />
            </Array>
          </mxGeometry>
        </mxCell>
        <mxCell id="Rp98vRauL4UU2274sa19-4" value="END" style="rounded=1;whiteSpace=wrap;html=1;" vertex="1" parent="1">
          <mxGeometry x="285" y="109" width="81" height="18" as="geometry" />
        </mxCell>
        <mxCell id="Rp98vRauL4UU2274sa19-11" style="edgeStyle=orthogonalEdgeStyle;rounded=0;orthogonalLoop=1;jettySize=auto;html=1;entryX=0.5;entryY=0;entryDx=0;entryDy=0;exitX=0.25;exitY=1;exitDx=0;exitDy=0;endArrow=open;endFill=0;" edge="1" parent="1" source="Rp98vRauL4UU2274sa19-7" target="Rp98vRauL4UU2274sa19-10">
          <mxGeometry relative="1" as="geometry" />
        </mxCell>
        <mxCell id="Rp98vRauL4UU2274sa19-15" style="edgeStyle=orthogonalEdgeStyle;rounded=0;orthogonalLoop=1;jettySize=auto;html=1;entryX=0.5;entryY=0;entryDx=0;entryDy=0;exitX=0.75;exitY=1;exitDx=0;exitDy=0;endArrow=open;endFill=0;" edge="1" parent="1" source="Rp98vRauL4UU2274sa19-7" target="Rp98vRauL4UU2274sa19-12">
          <mxGeometry relative="1" as="geometry" />
        </mxCell>
        <mxCell id="Rp98vRauL4UU2274sa19-7" value="&lt;font style=&quot;font-size: 14px&quot;&gt;Is it a &lt;b&gt;cause&lt;/b&gt; clause corresponding &lt;b&gt;c&lt;sub&gt;i&lt;/sub&gt;&lt;/b&gt; ; &lt;b&gt;c&lt;sub&gt;j&lt;/sub&gt;&lt;/b&gt;&lt;/font&gt;" style="rounded=1;whiteSpace=wrap;html=1;fillColor=#d5e8d4;strokeColor=#82b366;" vertex="1" parent="1">
          <mxGeometry x="220" y="163" width="418" height="30" as="geometry" />
        </mxCell>
        <mxCell id="Rp98vRauL4UU2274sa19-14" style="edgeStyle=orthogonalEdgeStyle;rounded=0;orthogonalLoop=1;jettySize=auto;html=1;entryX=0.75;entryY=0;entryDx=0;entryDy=0;endArrow=open;endFill=0;" edge="1" parent="1" source="Rp98vRauL4UU2274sa19-8" target="Rp98vRauL4UU2274sa19-7">
          <mxGeometry relative="1" as="geometry">
            <mxPoint x="439" y="140" as="targetPoint" />
          </mxGeometry>
        </mxCell>
        <mxCell id="Rp98vRauL4UU2274sa19-8" value="emotion clause c&lt;sub&gt;i&lt;/sub&gt;" style="rounded=1;whiteSpace=wrap;html=1;fillColor=#fad7ac;strokeColor=#b46504;" vertex="1" parent="1">
          <mxGeometry x="472.5" y="115" width="122.5" height="26" as="geometry" />
        </mxCell>
        <mxCell id="Rp98vRauL4UU2274sa19-10" value="END" style="rounded=1;whiteSpace=wrap;html=1;" vertex="1" parent="1">
          <mxGeometry x="285" y="223" width="81" height="18" as="geometry" />
        </mxCell>
        <mxCell id="Rp98vRauL4UU2274sa19-17" style="edgeStyle=orthogonalEdgeStyle;rounded=0;orthogonalLoop=1;jettySize=auto;html=1;entryX=0.75;entryY=0;entryDx=0;entryDy=0;endArrow=open;endFill=0;dashed=1;" edge="1" parent="1" source="Rp98vRauL4UU2274sa19-12" target="Rp98vRauL4UU2274sa19-16">
          <mxGeometry relative="1" as="geometry" />
        </mxCell>
        <mxCell id="Rp98vRauL4UU2274sa19-12" value="candidate pair (c&lt;sub&gt;i&lt;/sub&gt;, c&lt;sub&gt;j&lt;/sub&gt;)" style="rounded=1;whiteSpace=wrap;html=1;fillColor=#fad7ac;strokeColor=#b46504;" vertex="1" parent="1">
          <mxGeometry x="472.5" y="225" width="122.5" height="26" as="geometry" />
        </mxCell>
        <mxCell id="Rp98vRauL4UU2274sa19-21" style="rounded=0;orthogonalLoop=1;jettySize=auto;html=1;entryX=1;entryY=0.5;entryDx=0;entryDy=0;exitX=0.5;exitY=1;exitDx=0;exitDy=0;edgeStyle=orthogonalEdgeStyle;endArrow=blockThin;endFill=0;dashed=1;fillColor=#e1d5e7;strokeColor=#9673a6;" edge="1" parent="1" source="Rp98vRauL4UU2274sa19-16" target="Rp98vRauL4UU2274sa19-8">
          <mxGeometry relative="1" as="geometry">
            <Array as="points">
              <mxPoint x="429" y="353" />
              <mxPoint x="694" y="353" />
              <mxPoint x="694" y="128" />
            </Array>
          </mxGeometry>
        </mxCell>
        <mxCell id="Rp98vRauL4UU2274sa19-16" value="&lt;font style=&quot;font-size: 14px&quot;&gt;Is it a &lt;b&gt;emotion&lt;/b&gt; clause corresponding &lt;b&gt;c&lt;sub&gt;j&lt;/sub&gt;&lt;/b&gt;&amp;nbsp;; &lt;b&gt;c&lt;sub&gt;i&lt;/sub&gt;&lt;/b&gt;&lt;/font&gt;" style="rounded=1;whiteSpace=wrap;html=1;fillColor=#e1d5e7;strokeColor=#9673a6;" vertex="1" parent="1">
          <mxGeometry x="220" y="283" width="418" height="30" as="geometry" />
        </mxCell>
        <mxCell id="Rp98vRauL4UU2274sa19-18" value="&lt;b&gt;Emotion&lt;br&gt;Extraction&lt;/b&gt;" style="text;html=1;strokeColor=none;fillColor=none;align=center;verticalAlign=middle;whiteSpace=wrap;rounded=0;" vertex="1" parent="1">
          <mxGeometry x="67" y="56" width="147" height="20" as="geometry" />
        </mxCell>
        <mxCell id="Rp98vRauL4UU2274sa19-19" value="&lt;b&gt;Cause Extraction &lt;br&gt;emotion-based&lt;/b&gt;" style="text;html=1;strokeColor=none;fillColor=none;align=center;verticalAlign=middle;whiteSpace=wrap;rounded=0;" vertex="1" parent="1">
          <mxGeometry x="72.75" y="168" width="135.5" height="20" as="geometry" />
        </mxCell>
        <mxCell id="Rp98vRauL4UU2274sa19-20" value="&lt;b&gt;Emotion Extraction &lt;br&gt;cause-based&lt;/b&gt;" style="text;html=1;strokeColor=none;fillColor=none;align=center;verticalAlign=middle;whiteSpace=wrap;rounded=0;" vertex="1" parent="1">
          <mxGeometry x="73.5" y="288" width="134" height="20" as="geometry" />
        </mxCell>
        <mxCell id="Rp98vRauL4UU2274sa19-25" value="&lt;b&gt;&lt;font style=&quot;font-size: 14px&quot;&gt;Rethink&lt;/font&gt;&lt;/b&gt;" style="text;html=1;strokeColor=none;fillColor=none;align=center;verticalAlign=middle;whiteSpace=wrap;rounded=0;" vertex="1" parent="1">
          <mxGeometry x="559" y="366" width="40" height="20" as="geometry" />
        </mxCell>
      </root>
    </mxGraphModel>
  </diagram>
</mxfile>
